<svg width="48" height="48" viewBox="0 0 48 48" fill="none" xmlns="http://www.w3.org/2000/svg">
<path d="M11.5 17C11.5 15.6193 12.6193 14.5 14 14.5H18C19.3807 14.5 20.5 15.6193 20.5 17V23.5H11.5V17Z" stroke="#FF498B" stroke-width="3"/>
<path d="M26.5 17C26.5 15.6193 27.6193 14.5 29 14.5H33C34.3807 14.5 35.5 15.6193 35.5 17V23.5H26.5V17Z" stroke="#FF498B" stroke-width="3"/>
<path d="M7.5 11C7.5 6.30558 11.3056 2.5 16 2.5H31C35.6944 2.5 39.5 6.30558 39.5 11V23.5H7.5V11Z" stroke="#152C5B" stroke-width="3"/>
<mask id="path-4-inside-1_43_42" fill="white">
<path d="M0 26C0 23.7909 1.79086 22 4 22H44C46.2091 22 48 23.7909 48 26V36C48 37.1046 47.1046 38 46 38H2C0.895431 38 0 37.1046 0 36V26Z"/>
</mask>
<path d="M0 26C0 23.7909 1.79086 22 4 22H44C46.2091 22 48 23.7909 48 26V36C48 37.1046 47.1046 38 46 38H2C0.895431 38 0 37.1046 0 36V26Z" stroke="#152C5B" stroke-width="6" mask="url(#path-4-inside-1_43_42)"/>
<path d="M43 42H5" stroke="#152C5B" stroke-width="3" stroke-linecap="round"/>
<path d="M5 37L5 47" stroke="#152C5B" stroke-width="3" stroke-linecap="round"/>
<path d="M43 37L43 47" stroke="#152C5B" stroke-width="3" stroke-linecap="round"/>
</svg>
