<svg width="48" height="48" viewBox="0 0 48 48" fill="none" xmlns="http://www.w3.org/2000/svg">
<path d="M1.5 8C1.5 6.61929 2.61929 5.5 4 5.5H44C45.3807 5.5 46.5 6.61929 46.5 8V22C46.5 23.3807 45.3807 24.5 44 24.5H4C2.61929 24.5 1.5 23.3807 1.5 22V8Z" stroke="#152C5B" stroke-width="3"/>
<path d="M46 19L2 19" stroke="#152C5B" stroke-width="3" stroke-linecap="round"/>
<path d="M43 30L42.6901 30.4029C39.9251 33.9974 39.9251 39.0026 42.6901 42.5971L43 43" stroke="#152C5B" stroke-width="3" stroke-linecap="round"/>
<path d="M7 30L7.30991 30.4029C10.0749 33.9974 10.0749 39.0026 7.30991 42.5971L7 43" stroke="#152C5B" stroke-width="3" stroke-linecap="round"/>
<path d="M36 30L35.6901 30.4029C32.9251 33.9974 32.9251 39.0026 35.6901 42.5971L36 43" stroke="#152C5B" stroke-width="3" stroke-linecap="round"/>
<path d="M14 30L14.3099 30.4029C17.0749 33.9974 17.0749 39.0026 14.3099 42.5971L14 43" stroke="#152C5B" stroke-width="3" stroke-linecap="round"/>
<path d="M20 13L28 13" stroke="#FF498B" stroke-width="3" stroke-linecap="round"/>
</svg>
