<svg width="48" height="48" viewBox="0 0 48 48" fill="none" xmlns="http://www.w3.org/2000/svg">
<path d="M17 15L17 21" stroke="#152C5B" stroke-width="3" stroke-linecap="round"/>
<path d="M31 15L31 21" stroke="#152C5B" stroke-width="3" stroke-linecap="round"/>
<path d="M5.6483 22.9847C6.04955 22.0818 6.94485 21.5 7.93283 21.5H40.0672C41.0551 21.5 41.9505 22.0818 42.3517 22.9847L44.1295 26.9847C44.8642 28.6379 43.6541 30.5 41.845 30.5H6.15505C4.3459 30.5 3.13576 28.6379 3.87052 26.9847L5.6483 22.9847Z" stroke="#152C5B" stroke-width="3"/>
<mask id="path-4-inside-1_46_50" fill="white">
<path d="M13 29C13.5523 29 14 29.4477 14 30L14 44C14 46.2091 12.2091 48 10 48C7.79086 48 6 46.2091 6 44L6 30C6 29.4477 6.44772 29 7 29L13 29Z"/>
</mask>
<path d="M13 29C13.5523 29 14 29.4477 14 30L14 44C14 46.2091 12.2091 48 10 48C7.79086 48 6 46.2091 6 44L6 30C6 29.4477 6.44772 29 7 29L13 29Z" stroke="#152C5B" stroke-width="6" mask="url(#path-4-inside-1_46_50)"/>
<mask id="path-5-inside-2_46_50" fill="white">
<path d="M20 6C20.5523 6 21 6.44772 21 7L21 12C21 14.2091 19.2091 16 17 16C14.7909 16 13 14.2091 13 12L13 7C13 6.44772 13.4477 6 14 6L20 6Z"/>
</mask>
<path d="M20 6C20.5523 6 21 6.44772 21 7L21 12C21 14.2091 19.2091 16 17 16C14.7909 16 13 14.2091 13 12L13 7C13 6.44772 13.4477 6 14 6L20 6Z" stroke="#FF498B" stroke-width="6" mask="url(#path-5-inside-2_46_50)"/>
<mask id="path-6-inside-3_46_50" fill="white">
<path d="M34 6C34.5523 6 35 6.44772 35 7L35 12C35 14.2091 33.2091 16 31 16C28.7909 16 27 14.2091 27 12L27 7C27 6.44772 27.4477 6 28 6L34 6Z"/>
</mask>
<path d="M34 6C34.5523 6 35 6.44772 35 7L35 12C35 14.2091 33.2091 16 31 16C28.7909 16 27 14.2091 27 12L27 7C27 6.44772 27.4477 6 28 6L34 6Z" stroke="#FF498B" stroke-width="6" mask="url(#path-6-inside-3_46_50)"/>
<mask id="path-7-inside-4_46_50" fill="white">
<path d="M41 29C41.5523 29 42 29.4477 42 30L42 44C42 46.2091 40.2091 48 38 48C35.7909 48 34 46.2091 34 44L34 30C34 29.4477 34.4477 29 35 29L41 29Z"/>
</mask>
<path d="M41 29C41.5523 29 42 29.4477 42 30L42 44C42 46.2091 40.2091 48 38 48C35.7909 48 34 46.2091 34 44L34 30C34 29.4477 34.4477 29 35 29L41 29Z" stroke="#152C5B" stroke-width="6" mask="url(#path-7-inside-4_46_50)"/>
</svg>
