<svg width="48" height="48" viewBox="0 0 48 48" fill="none" xmlns="http://www.w3.org/2000/svg">
<path d="M30.5 40C30.5 41.3349 29.3789 42.9472 26.6429 44.3152C23.9966 45.6383 20.2359 46.5 16 46.5C11.7641 46.5 8.00336 45.6383 5.35711 44.3152C2.62114 42.9472 1.5 41.3349 1.5 40C1.5 38.6651 2.62114 37.0528 5.35711 35.6848C8.00336 34.3617 11.7641 33.5 16 33.5C20.2359 33.5 23.9966 34.3617 26.6429 35.6848C29.3789 37.0528 30.5 38.6651 30.5 40Z" stroke="#152C5B" stroke-width="3"/>
<path d="M28.5 12.6667C28.5 15.8942 27.0061 22.6475 24.5148 28.63C23.2755 31.6059 21.8327 34.2831 20.285 36.1893C18.6978 38.144 17.2412 39 16 39C14.7588 39 13.3022 38.144 11.715 36.1893C10.1673 34.2831 8.72447 31.6059 7.48524 28.63C4.99392 22.6475 3.5 15.8942 3.5 12.6667C3.5 6.6372 8.95167 1.5 16 1.5C23.0483 1.5 28.5 6.6372 28.5 12.6667Z" fill="white" stroke="#152C5B" stroke-width="3"/>
<circle cx="16" cy="13" r="4.5" stroke="#FF498B" stroke-width="3"/>
</svg>
