<svg width="48" height="48" viewBox="0 0 48 48" fill="none" xmlns="http://www.w3.org/2000/svg">
<path d="M42 22L42 7.52135C42 6.84245 41.6556 6.20991 41.0854 5.84148L39.2594 4.6617C38.6305 4.25535 37.8273 4.23433 37.178 4.60725L34 6.43243" stroke="#FF498B" stroke-width="3" stroke-linecap="round"/>
<path d="M1.5 25C1.5 23.6193 2.61929 22.5 4 22.5H44C45.3807 22.5 46.5 23.6193 46.5 25V27C46.5 28.3807 45.3807 29.5 44 29.5H4C2.61929 29.5 1.5 28.3807 1.5 27V25Z" stroke="#152C5B" stroke-width="3"/>
<path d="M5.5 29.5H42.5V39C42.5 40.933 40.933 42.5 39 42.5H9C7.067 42.5 5.5 40.933 5.5 39V29.5Z" stroke="#152C5B" stroke-width="3"/>
<path d="M11 43L11 46" stroke="#152C5B" stroke-width="3" stroke-linecap="round"/>
<path d="M37 43L37 46" stroke="#152C5B" stroke-width="3" stroke-linecap="round"/>
</svg>
